<svg viewBox="0 0 78 61" fill="none" xmlns="http://www.w3.org/2000/svg"><path d="M77.447 24.282c-.473-1.192-.255-2.383 0-3.188.545-1.577.8-4.024-.983-6.793-.946-1.448-1.6-2.8-2-4.12-1.456-4.669-4.84-7.34-9.242-7.34-2.002 0-4.221.546-6.586 1.673a9.16 9.16 0 00-1.31-1.32c-.327-.257-2.001-1.352-5.749-1.352-2.365 0-5.093.419-8.15 1.256h-.072c-.037 0-4.367 1.32-9.897 1.32-2.51 0-4.875-.258-7.058-.773-.583-.129-3.857-.87-6.513-.87-5.24 0-14.627 1.288-18.92 9.788-.291.483-1.783 3.412-.364 5.827.146.29.364.58.655.87l.036.74c.11 1.803.51 5.183 2.183 7.79.437.677 1.201 1.063 2.074 1.063 1.201 0 2.183-.74 2.402-1.77.145-.677.327-1.45.618-2.318.255 1.094.691 2.285 1.346 3.283.4.644 1.165 1.03 2.002 1.03 1.091 0 2-.675 2.219-1.577.11.419.218.837.4 1.256.328.772 1.165 1.287 2.074 1.287.946 0 1.783-.547 2.11-1.32.255-.611.728-1.674 1.456-2.672-.328 1.578-.364 2.962-.073 4.153.218.902 1.091 1.546 2.147 1.546.837 0 1.564-.387 1.964-1.03.291-.483.837-1.353 1.601-2.157-.072 1.384.073 2.607.473 3.638.291.804 1.128 1.32 2.074 1.32.91 0 1.71-.483 2.038-1.224.182-.45.582-1.191 1.091-1.964.073 1.191.328 2.222.764 3.09.364.677 1.128 1.128 1.965 1.128.983 0 1.783-.548 2.074-1.385.073-.193.145-.483.291-.772.146.676.327 1.287.582 1.835.328.676 1.092 1.127 1.965 1.127.946 0 1.82-.58 2.074-1.385.109-.354.327-.901.618-1.513.255.58.51 1.095.874 1.545.4.548 1.055.837 1.782.837 1.092 0 2.002-.708 2.147-1.674a6.768 6.768 0 01.4-1.738c1.82.064 8.405.354 12.698 1.159.073 0 .8.129 1.965.257-2.074.87-4.73 1.932-7.859 3.155-.145.065-1.018.387-2.401 1.063l-.073-.065a7.555 7.555 0 01-.982-.837 2.222 2.222 0 00-1.565-.611c-.546 0-1.091.193-1.455.547-.4.354-.619.805-.582 1.288 0 .515.109 1.062.29 1.642a6.628 6.628 0 01-.763-.87c-.364-.515-1.02-.804-1.71-.804-1.056 0-1.929.708-2.038 1.642-.11.9.073 1.835.291 2.575a9 9 0 01-1.055-1.191 2.228 2.228 0 00-1.746-.837c-1.092 0-2.002.74-2.11 1.674-.183 1.48.29 3.026.727 4.056l.073.194-.037.032c-1.455-.934-2.656-2.19-3.238-2.865-.437-.516-1.091-.805-1.82-.805-1.236 0-2.255.837-2.291 1.931-.073 1.063.109 2.125.4 3.123-.328-.354-.619-.644-.8-.87a2.328 2.328 0 00-1.783-.804c-1.201 0-2.22.837-2.256 1.9-.037.869.073 1.802.327 2.8-.145-.225-.254-.418-.364-.547-.363-.644-1.091-1.03-1.892-1.03-.982 0-1.855.612-2.073 1.449-.364 1.48-.073 3.123.254 4.217l.728 2.544.146-.097c.145.225.327.418.545.612h.037c.145.128 3.82 3.09 8.077 3.09.546 0 1.128-.064 1.637-.16 1.092-.13 4.294-.999 10.66-6.407a27.253 27.253 0 012.293-1.675H48.63c1.165 0 7.168-.064 12.698-1.61h.073c.218-.064 5.13-1.705 8.405-6.921.291-.386 2.147-2.865 3.675-4.507 1.346-1.256 3.056-4.186.91-7.276 1.782-.87 2.728-2.029 3.237-3.059-.036-.128.728-1.931-.181-4.25z" fill="#010400"/><path d="M75.737 24.829c-.546-1.352-.474-2.833 0-4.186.473-1.384.618-3.316-.837-5.505a20.181 20.181 0 01-1.601-2.994c-.219-.483-.4-.998-.546-1.48-.437-1.482-1.31-3.252-2.838-4.508-2.183-1.835-5.676-2.608-11.206.225 0 0 .218 1.192-.4 2.254 0 0-.11-2.608-2.184-4.153 0 0-2.692-2.093-10.988-.064-.4.096-.8.193-1.2.321 0 0-8.878 2.77-18.12.548-3.129-.74-6.367-.966-9.569-.58-2.438.29-5.13.966-7.568 2.318-2.401 1.352-4.62 3.348-6.112 6.343 0 0-2.183 3.798.691 5.473.546.322 1.273.547 2.22.676 6.003.805 9.569 1.931 15.463 4.732 0 0 9.278 5.087 22.485 5.602.983.032 2.001.032 3.057.032 0 0 8.295.258 13.462 1.224 0 0 2.874.483 6.185.483 3.82 0 8.26-.709 9.642-3.574.036-.032.691-1.384-.036-3.187zM13.665 13.496c.51 2.286-2.292 2.962-5.822 3.123-3.529.161-2.328-2.51-2.328-2.51 4.002-6.504 9.787-5.7 9.787-5.7-1.6.548-2.146 2.802-1.637 5.087zm30.89-1.77c-1.965 1.867-1.128 3.927-1.128 3.927s1.965 5.023-1.528 6.858c-.4.193-.8.354-1.164.418-2.438.516-4.767-.965-4.767-.965s-.873-.644-2.838-1.16c-1.637-.418-4.002-.708-7.204-.482-8.15.643-6.476-4.894-6.403-5.184-.146 3.123 2.401 3.896 2.401 3.896-.546-6.568 7.204-7.373 7.204-7.373s4.184-.547 7.677-1.642a18.64 18.64 0 002.474-.965c2.22-1.095 3.675-1.095 4.512-.902.655.161.946.419.946.419s1.82 1.32-.182 3.155zm9.46 8.338c.655 1.288 1.892 5.087-2.147 5.827-4.038.74-5.42-2.962-5.603-6.535-.182-3.574 1.929-8.178 4.73-11.043 1.747-1.803 2.875-.258 2.875-.258s3.456-.16 3.456 3.67c0 3.832-3.093 6.279-3.093 6.279s-.873.74-.218 2.06zm16.373 7.63c-1.674 2.608-8.332.322-8.732-4.12-.4-4.476.073-9.08-1.892-12.138 0 0 .8.29 1.419.773 0 0 1.455-1.707 4.257.193 2.801 1.9 5.712 5.022 3.893 7.05-1.82 2.029 0 3.413 0 3.413s2.729 2.221 1.055 4.83zM71.99 37.868c-1.747 1.867-3.894 4.764-3.894 4.764-2.984 4.797-7.459 6.246-7.459 6.246-5.821 1.642-12.334 1.545-12.334 1.545 2.62-2.285 6.877-3.444 7.168-3.509-3.384-.322-8.805 3.349-10.952 4.894-.582.418-.91.676-.91.676-6.95 5.956-9.678 5.988-9.678 5.988-4.111.837-8.186-2.543-8.186-2.543-.728-.612-.146-1.417-.146-1.417.619-.547 1.82-.998 1.82-.998 2.328-.837 4.402-1.77 6.148-2.736 4.876-2.576 7.46-5.184 7.46-5.184 6.84-5.537 13.425-8.016 13.425-8.016a781.16 781.16 0 006.44-2.576c3.93-1.61 6.222-2.607 6.222-2.607.509.064 1.055.064 1.055.064s.036.032.073.032c1.964.87 2.073 3.316.218 4.346-2.183 1.224-5.676 1.836-5.676 1.836-3.275.483-6.076 1.159-8.405 1.963-.036 0-.073.033-.11.033-.072.032-.108.032-.108.032l-.546.193c-8.332 3.026-10.879 7.405-10.988 7.598 8.441-7.63 18.12-8.21 18.12-8.21s7.458-.74 9.714-3.477c2.256-2.736-.619-4.507-.619-4.507 1.237-.16 2.256-.483 2.256-.483 3.056 3.252-.109 6.053-.109 6.053z" fill="#FDF0D9"/><path d="M12.537 9.054s-5.603 2.06-6.149 5.666c0 0-.327 1.996 4.22 1.03.037 0-5.312-.676 1.929-6.696zm31.509.515c-.983-.902-4.475.58-4.475.58-3.966 1.416-7.205 1.77-10.552 2.382-3.347.611-6.33 3.477-6.258 5.376.073 1.9 3.093 1.61 3.093 1.61-.983-.902-.692-1.964-.692-1.964.8-2.318 4.33-2.801 4.33-2.801 2.11-.418 6.55-1.545 9.787-3.22 4.44-2.285 4.84-.321 4.84-.321.436-.966-.073-1.642-.073-1.642zm5.203 8.917s.837-5.537 3.966-9.69c0 0-.874-1.223-2.329.901 0 0-5.057 5.28-3.311 12.299 0 0 1.055 3.22 3.275 3.251 0 0 2.947.161 2.947-1.706.036.032-5.094.998-4.548-5.055zm20.884 6.375s-.436 2.157-3.966.805c0 0-2.073-1.095-2.11-3.606 0 0 .328-3.155-.873-6.76 0 0-1.128-2.609 0-3.06 0 0-1.965-.353-1.237 2.64 0 0 .655 3.768.691 6.214.037 2.447.4 6.182 4.366 6.761 3.966.58 3.13-2.994 3.13-2.994z" fill="#DCD0B0"/><path d="M8.316 21.094c-1.273 2.06-1.892 4.411-2.183 5.828-.109.482-.836.611-1.091.16-1.528-2.35-1.856-5.537-1.928-7.05.582.258 1.273.45 2.146.58.146.032.291.032.4.064-1.127 2.865-.036 5.409-.036 5.409.073-2.19.946-4.154 1.528-5.184.4.065.8.129 1.164.193zM27.018 52.485c-.073.032-.109.032-.182.064-.036.032-.182.064-.364.161-.436-.45-1.091-1.191-1.455-2.125 0 0-.073 1.256.837 2.415a6.187 6.187 0 00-1.055.644c-.219-.773-.546-2.222-.219-3.478.073-.225.437-.29.546-.064a9.111 9.111 0 001.892 2.383zM40.08 41.763s.073 1.192 1.055 2.254c-.291.226-.618.483-.91.741-.327-.773-.764-2.125-.618-3.349.036-.258.4-.322.546-.129.4.515 1.091 1.32 1.965 1.997-.146.096-.292.225-.437.322-.51-.419-1.164-1.03-1.601-1.836zM44.592 39.458s.036.857.69 1.65c-.217.164-.472.296-.69.46-.219-.659-.473-1.582-.4-2.44.036-.198.327-.264.436-.099.291.396.8 1.022 1.455 1.55-.109.066-.254.165-.364.231a4.748 4.748 0 01-1.127-1.352zM49.722 38.544a3.382 3.382 0 01-.8-.89s.108.495.472 1.055l-.545.297c-.182-.495-.364-1.088-.364-1.616 0-.198.29-.297.436-.132.291.297.691.693 1.2 1.089a4.086 4.086 0 00-.4.197zM29.31 47.687s.219 1.675 1.638 3.124c-.474.225-.947.45-1.456.644-.51-1.127-1.055-2.77-.982-4.283.036-.354.545-.515.8-.226.692.805 1.856 2.03 3.348 2.963l-.765.386a8.62 8.62 0 01-2.583-2.608zM33.858 44.371s.255 2.028 2.11 3.67a20.52 20.52 0 01-1.6.998c-.582-1.191-1.42-3.284-1.346-5.183.036-.386.582-.547.836-.225.764.869 2.074 2.253 3.712 3.283-.219.161-.473.322-.728.515-.8-.611-2.11-1.641-2.984-3.058zM14.102 22.608c-1.02 1.641-1.492 3.509-1.71 4.636-.073.386-.655.482-.874.128-1.346-2.06-1.528-4.958-1.564-5.956.727.161 1.455.354 2.183.548-1.092 2.414-.146 4.603-.146 4.603.073-1.835.837-3.444 1.274-4.25.255.065.546.194.837.29zM19.122 24.668c-1.091 1.223-1.782 2.704-2.146 3.638-.11.322-.619.322-.764 0-.764-1.803-.546-4.12-.4-5.055.545.226 1.091.451 1.673.709-1.2 1.867-.764 3.734-.764 3.734.328-1.48 1.164-2.704 1.674-3.316.255.065.473.193.727.29z" fill="#FDF0D9"/><path d="M24.799 27.212c-1.055.965-1.82 2.093-2.256 2.833a.38.38 0 01-.291.161.39.39 0 01-.437-.257c-.327-1.353-.073-2.866.182-3.897.364.161.8.355 1.273.548-.91 1.32-.91 2.64-.873 2.833v.033c.4-1.03 1.092-1.868 1.638-2.448l.036-.032.036-.032c.219.064.437.16.692.258z" fill="#FFB646"/><path d="M30.365 28.982c-.836.998-1.382 2.093-1.673 2.802-.146.29-.619.29-.728-.032-.437-1.16-.437-2.544-.327-3.575.4.13.8.258 1.237.387-.619 1.352-.4 2.576-.4 2.64.254-.966.764-1.803 1.2-2.415.218.097.437.161.691.193zM35.75 30.185c-.655.957-1.055 2.045-1.273 2.705-.073.264-.473.297-.582.033-.51-1.056-.619-2.342-.619-3.233.364.066.764.165 1.128.231-.473 1.32-.146 2.474-.146 2.474.146-.924.546-1.748.874-2.342.182.066.4.099.618.132zM40.735 30.792c-.728 1.022-1.164 2.144-1.383 2.87-.072.264-.473.297-.582.033-.51-1.023-.618-2.276-.618-3.2.364.066.764.1 1.164.132-.51 1.352-.182 2.54-.182 2.54.145-.99.582-1.88.946-2.441.218.033.437.066.655.066zM45.174 30.979c-.291.824-.4 1.583-.473 2.144-.037.264-.437.363-.582.132-.51-.693-.837-1.55-1.02-2.31.292 0 .62.034.947.034 0 .99.364 1.715.364 1.715-.037-.627.073-1.188.218-1.715h.546z" fill="#FDF0D9"/><path d="M62.784 38.672c-3.275.483-6.076 1.16-8.405 1.964 1.2-.45 6.658-2.672 6.513-5.666 3.93-1.61 6.221-2.608 6.221-2.608.51.065 1.056.065 1.056.065s.036.032.072.032c1.965.87 2.074 3.316.219 4.346-2.183 1.256-5.676 1.867-5.676 1.867z" fill="#DCD0B0"/><path d="M71.99 37.868c-1.747 1.867-3.894 4.765-3.894 4.765-2.984 4.797-7.459 6.245-7.459 6.245-5.821 1.642-12.334 1.546-12.334 1.546 2.62-2.286 6.877-3.445 7.168-3.51 0 0 5.967-.611 5.821-2.382-.145-1.738-8.15-2.962-18.665 3.992 8.441-7.63 18.12-8.21 18.12-8.21s7.458-.74 9.714-3.476c2.256-2.737-.619-4.508-.619-4.508 1.237-.16 2.256-.483 2.256-.483 3.056 3.22-.109 6.02-.109 6.02zM44.483 51.808c-.583.418-.91.676-.91.676-6.95 5.956-9.678 5.988-9.678 5.988-4.112.837-8.187-2.543-8.187-2.543-.727-.612-.145-1.417-.145-1.417.618-.547 1.819-.998 1.819-.998 2.329-.837 4.402-1.77 6.149-2.736-.328.225-6.513 4.088-1.565 4.764 5.094.74 6.258-.708 12.517-3.734zM75.81 27.984c-1.383 2.898-5.822 3.574-9.642 3.574 6.44-.998 7.276-4.218 7.276-4.218s2.11-6.02-1.746-12.588c-2.91-4.99-2.256-7.662-1.783-8.628 1.492 1.288 2.365 3.058 2.838 4.507.473 1.578 1.273 3.059 2.183 4.475 1.42 2.222 1.31 4.153.837 5.505-.473 1.385-.546 2.834 0 4.186.691 1.835.036 3.187.036 3.187zM43.427 29.851c-13.17-.515-22.485-5.602-22.485-5.602-5.858-2.8-9.46-3.927-15.464-4.732-.946-.129-1.673-.354-2.219-.676 0 0 4.22.58 8.696-.258 4.475-.837 13.316 4.668 13.316 4.668s8.223 5.313 18.156 6.6zM45.174 4.386c-.364.197-9.06 4.75-19.32 2.605-10.479-2.21-16.81 0-17.137.1 2.256-1.287 4.73-1.98 7.022-2.31 3.384-.494 6.84-.297 10.151.495 9.242 2.243 18.12-.594 18.12-.594.363-.099.764-.198 1.164-.296z" fill="#DCD0B0"/><path d="M71.698 14.752c-2.147-4.088-5.13-7.308-5.13-7.308.473 1.223.363 2.479.363 2.479-2.837-4.668-8.623-1.32-8.623-1.32.619-1.062.4-2.254.4-2.254 5.495-2.833 9.024-2.06 11.207-.225 1.492 1.288 2.365 3.059 2.838 4.507.145.515.327.998.546 1.481-.837 1.417-1.601 2.64-1.601 2.64z" fill="#DCD0B0"/><path d="M36.55 19.463c.146-.132.292-.297.401-.43a6.2 6.2 0 00-.4.43z" fill="#fff"/><path d="M40.735 23.014c-4.294 1.187-8.405.099-8.405.099l.764-2.276c1.965.495 2.838 1.187 2.838 1.187s2.365 1.518 4.803.99zM43.828 8.25c-.837-.194-2.293-.194-4.512.9-.728.355-1.601.677-2.474.967l1.273-3.639 2.147-.676c2.147.74 3.566 2.447 3.566 2.447z" fill="#DCD0B0"/><path d="M41.11 14.587c.963-5.302-1.65-10.082-5.836-10.677-4.186-.595-8.36 3.22-9.323 8.522-.962 5.302 1.651 10.082 5.837 10.677 4.186.595 8.36-3.22 9.323-8.522z" fill="#010400"/><path d="M35.568 6.736a3.555 3.555 0 00-1.6-.612c-.183-.032-.364-.032-.546-.032-2.73 0-5.385 2.865-6.04 6.503a8.879 8.879 0 00.182 4.185c.618 2.029 1.965 3.542 3.784 3.8.182.032.364.032.546.032 2.728 0 5.384-2.866 6.04-6.504.545-3.187-.474-6.117-2.366-7.372z" fill="#010400"/><path d="M35.568 6.736a3.555 3.555 0 00-1.6-.612c-.183-.032-.364-.032-.546-.032-2.73 0-5.385 2.865-6.04 6.503a8.879 8.879 0 00.182 4.185 3.54 3.54 0 001.637.612c.182.032.364.032.546.032 2.729 0 5.385-2.865 6.04-6.503.218-1.481.145-2.93-.219-4.185z" fill="#191926"/><path d="M36.332 4.386s-5.02-7.342-13.39-1.16l5.713 1.804 7.677-.644z" fill="#010400"/><path d="M39.68 14.43c-.073.322-.11.644-.219.934-1.055 3.863-3.965 6.6-7.022 6.6-.145 0-.29 0-.436-.033-.11 0-.182-.032-.291-.032a5.087 5.087 0 01-1.929-.708c2.038.58 3.711.097 4.876-.58 0 0 .036-.032.072-.032.037-.032.11-.064.146-.096.291-.161.582-.387.873-.612.037-.032.11-.064.146-.129l.145-.129.073-.064c.037-.064.11-.097.146-.129.145-.129.29-.29.4-.418l.036-.032c0-.033.037-.033.073-.065l.036-.032s0-.032.037-.032c.691-.837 1.273-1.9 1.673-3.027.182-.482.291-.998.4-1.513.037-.16.073-.322.073-.483 0-.16.037-.322.037-.482 0-.13.036-.29.036-.42v-.45c0-.547-.036-1.094-.109-1.61-.036-.16-.036-.322-.073-.482a8.73 8.73 0 00-.29-1.03 8.217 8.217 0 00-.801-1.675 2.91 2.91 0 00-.291-.418 4.644 4.644 0 00-2.292-1.707c-2.184-.708-4.112.387-4.294.483a4.422 4.422 0 012.329-1.159c-.182-.225-.4-.45-.619-.611a5.59 5.59 0 00-1.237-.837c-.618-.322-1.237-.451-1.82-.516a5.565 5.565 0 00-1.273.033c-1.382.193-2.364.772-2.364.772l-1.092-.225c2.037-1.352 3.82-1.642 5.312-1.449.291.032.582.129.873.193a6.99 6.99 0 011.601.74c.437.29.837.613 1.164.902.474.419.765.805.947 1.03 1.273.258 2.182.966 2.255.999.546.386 1.02.869 1.42 1.416.363.483.654 1.03.873 1.642.109.322.218.644.327.998.291 1.384.364 2.897.073 4.475z" fill="#FFB646"/><path d="M39.68 14.43c-.073.322-.11.644-.219.934l-1.018.45c.181-.482.29-.998.4-1.513.036-.16.073-.322.073-.482 0-.162.036-.322.036-.483 0-.13.036-.29.036-.419v-.45c0-.548-.036-1.095-.109-1.61-.036-.161-.036-.322-.072-.483l.727-.354c.364 1.32.437 2.833.146 4.41zM39.243 9.062c-.218.132-.473.23-.691.363a8.51 8.51 0 00-.8-1.716l.618-.33c.364.495.655 1.056.873 1.683zM33.749 3.924l-1.164.395c-.4-.362-.837-.66-1.237-.857l1.237-.429c.473.264.837.594 1.164.89zM30.984 2.265l-1.455.66a5.433 5.433 0 00-1.274.033l1.856-.89.873.197zM24.799 27.218c-1.055.99-1.82 2.145-2.256 2.903a.378.378 0 01-.291.165c0-.264.073-.56.145-.825v.033c.4-1.055 1.092-1.913 1.638-2.506l.036-.033.036-.033c.219.099.437.197.692.296z" fill="#DD7400"/></svg>